# xmcd
#
# Track frame offsets:
#	150
#	10502
#	23535
#	37382
#	49130
#	61285
#	72617
#	83597
#	100822
#	111482
#	123500
#	137702
#	152650
#	164485
#	175802
#
# Disc length: 2539 seconds
#
# Revision: 0
# Processed by: cddbd v1.5.1PL0 Copyright (c) Steve Scherf et al.
# Submitted via: dBpowerAMP V4.0
#
DISCID=c909e90f
DTITLE=Louis Armstrong and freinds - what a wonderful world
DYEAR=1900
DGENRE=
TTITLE0=what a wonderful world  - louis armstrong
TTITLE1=when a man loves a woman  - percy sledge
TTITLE2=tell it like it is  - aaron neville
TTITLE3=only you  - the platters
TTITLE4=unforgettable  - dinah washington
TTITLE5=just a matter of time  - brook brenton
TTITLE6=i'm in the mood for love  - doris day
TTITLE7=rainy nigth in georgia  - brook brenton
TTITLE8=hurt  - tim yuro
TTITLE9=smoke gets in your eyes  - the platters
TTITLE10=till the end of time  - perry como
TTITLE11=georgia on my mind  - billie holiday
TTITLE12=the great pretender  - the platters
TTITLE13=our love is here to stay  - dinah washington
TTITLE14=if i loved you  - perry como
EXTD=all
EXTT0=
EXTT1=
EXTT2=
EXTT3=
EXTT4=
EXTT5=
EXTT6=
EXTT7=
EXTT8=
EXTT9=
EXTT10=
EXTT11=
EXTT12=
EXTT13=
EXTT14=
PLAYORDER=
